<?xml version="1.0" standalone="no"?>
<!DOCTYPE svg PUBLIC "-//W3C//DTD SVG 20010904//EN"
 "http://www.w3.org/TR/2001/REC-SVG-20010904/DTD/svg10.dtd">
<svg version="1.0" xmlns="http://www.w3.org/2000/svg"
 width="1200.000000pt" height="400.000000pt"  viewBox="0 0 1200.000000 400.000000"
 preserveAspectRatio="xMidYMid meet">

<g fill="#a7aaad" transform="translate(0.000000,400.000000) scale(0.100000,-0.100000)" stroke="none">
<path d="M2898 3762 c-71 -312 -430 -1904 -526 -2327 l-118 -520 -784 -5 -785
-5 -115 -225 c-64 -124 -147 -283 -185 -355 -39 -72 -71 -136 -73 -142 -3 -10
284 -13 1411 -13 l1415 0 21 88 c31 133 490 2150 660 2900 83 365 151 668 151
673 0 5 -218 9 -527 9 l-528 0 -17 -78z"/>
<path d="M4460 3597 c-51 -226 -55 -250 -54 -367 0 -140 19 -246 66 -380 55
-156 152 -326 254 -447 24 -28 44 -55 43 -60 0 -4 -37 -34 -82 -65 -331 -231
-616 -567 -717 -845 -87 -242 -76 -461 35 -688 94 -190 183 -277 400 -385 290
-144 609 -209 974 -197 321 11 620 73 905 189 l99 41 35 -39 c19 -21 66 -72
105 -111 l69 -73 474 0 c261 0 474 2 474 5 0 4 -565 698 -610 750 -17 19 -16
24 56 145 137 231 241 495 289 736 14 67 25 132 25 145 0 23 -17 29 -351 124
-192 55 -355 101 -363 103 -8 2 -16 -20 -25 -65 -36 -201 -98 -408 -141 -476
l-31 -49 -47 38 c-254 203 -561 493 -704 664 -97 115 -198 265 -233 345 -41
91 -52 193 -32 290 53 256 260 426 521 425 180 -1 348 -80 409 -194 20 -37 22
-54 20 -175 -2 -75 1 -131 6 -125 15 16 531 962 531 973 0 8 -330 11 -1172 11
l-1173 0 -55 -243z m1149 -2227 c182 -217 330 -399 328 -405 -6 -17 -167 -93
-262 -124 -137 -44 -200 -55 -320 -55 -177 0 -299 48 -416 164 -81 81 -119
155 -126 244 -14 163 94 314 356 501 58 41 106 74 107 72 1 -1 151 -180 333
-397z"/>
<path d="M7337 3703 c-41 -76 -163 -300 -271 -498 l-196 -360 800 -3 c728 -2
800 -4 800 -18 0 -9 -128 -528 -285 -1153 -256 -1021 -365 -1468 -365 -1492 0
-5 231 -9 514 -9 l514 0 332 1335 332 1335 592 0 591 0 145 145 145 145 -540
0 -540 0 66 66 66 65 537 -1 538 -1 102 101 101 100 -527 0 c-291 0 -528 4
-528 8 0 4 28 36 63 70 l63 62 534 0 535 0 120 120 120 120 -2141 0 -2141 0
-76 -137z"/>
</g>
</svg>
